<?xml version="1.0" standalone="no"?>
<!DOCTYPE svg PUBLIC "-//W3C//DTD SVG 20010904//EN"
 "http://www.w3.org/TR/2001/REC-SVG-20010904/DTD/svg10.dtd">
<svg version="1.0" xmlns="http://www.w3.org/2000/svg"
 width="612.000000pt" height="612.000000pt" viewBox="0 0 612.000000 612.000000"
 preserveAspectRatio="xMidYMid meet">
<metadata>
Created by potrace 1.14, written by Peter Selinger 2001-2017
</metadata>
<g transform="translate(0.000000,612.000000) scale(0.100000,-0.100000)"
fill="#000000" stroke="none">
<path d="M2855 6114 c-16 -2 -79 -9 -140 -15 -303 -30 -674 -136 -963 -274
-341 -164 -633 -373 -887 -636 -461 -477 -748 -1070 -841 -1739 -25 -175 -25
-604 0 -780 98 -705 416 -1333 918 -1815 182 -175 403 -342 581 -440 66 -36
71 -38 139 -31 38 3 78 11 88 16 9 5 59 14 111 21 51 6 103 15 117 20 37 14
164 39 200 39 36 0 62 22 88 72 9 18 22 40 29 48 7 8 27 44 46 80 18 36 48 88
66 117 42 63 51 94 47 156 -2 27 1 68 5 92 13 67 -5 159 -44 234 -55 105 -145
335 -145 370 0 40 -44 153 -70 181 -35 38 -47 71 -53 146 -3 33 -9 69 -15 80
-6 10 -19 42 -30 69 -11 28 -40 79 -64 115 -31 46 -49 88 -63 145 -10 44 -22
84 -27 90 -4 5 -8 32 -8 60 0 42 5 56 30 83 35 38 34 37 15 118 -8 34 -17 92
-21 130 -4 38 -13 78 -20 89 -8 11 -14 38 -14 61 0 22 -4 54 -9 70 -33 110
-43 179 -39 266 3 68 9 100 22 120 12 19 19 52 22 103 2 42 11 89 19 105 8 16
15 34 15 39 0 6 13 32 29 58 16 27 34 75 41 108 7 33 17 69 23 80 14 28 80
104 165 190 39 40 72 78 72 83 0 6 20 23 45 39 25 15 45 31 45 35 0 17 117
118 143 124 40 9 116 43 152 68 43 30 69 43 104 51 17 4 33 11 36 16 8 12 72
12 80 -1 9 -15 75 -12 142 5 40 11 109 15 236 15 173 0 191 -2 367 -41 40 -9
145 -54 222 -95 14 -8 32 -14 40 -14 7 0 33 -16 57 -35 24 -19 49 -35 56 -35
7 0 49 -35 93 -77 82 -80 127 -114 173 -135 38 -17 89 -148 89 -227 0 -20 10
-54 21 -76 20 -37 25 -67 48 -275 5 -41 14 -93 22 -115 9 -28 13 -101 13 -240
1 -226 -8 -347 -29 -384 -14 -26 -35 -116 -35 -151 0 -10 12 -32 26 -49 22
-26 25 -38 21 -74 -11 -89 -34 -175 -81 -301 -14 -38 -26 -79 -26 -90 0 -12
-7 -32 -16 -44 -16 -23 -15 -92 1 -185 5 -26 2 -48 -10 -73 -18 -38 -47 -54
-100 -54 -43 0 -57 -20 -80 -115 -27 -113 -75 -252 -90 -265 -8 -7 -15 -18
-15 -25 0 -23 -56 -137 -99 -199 -26 -39 -26 -42 -25 -205 l1 -166 33 -65 c19
-36 39 -72 46 -80 6 -8 22 -43 34 -77 32 -89 49 -101 170 -117 110 -15 204
-28 318 -42 l132 -16 56 33 c160 97 422 314 575 479 465 498 735 1081 820
1775 16 130 16 522 1 650 -43 340 -127 646 -258 938 -248 554 -675 1035 -1201
1353 -359 218 -771 361 -1203 420 -100 14 -522 27 -585 18z"/>
</g>
</svg>
